# Blender v2.90.0 OBJ File: ''
# www.blender.org
mtllib AndGate.mtl
o AndGate
v 0.464791 -0.824520 0.050000
v 0.464791 -0.144729 0.050000
v 0.450222 -0.034067 0.050000
v 0.037226 0.282837 0.050000
v 0.147887 0.268268 0.050000
v 0.251008 0.225553 0.050000
v 0.339560 0.157605 0.050000
v 0.407508 0.069054 0.050000
v 0.037226 0.282837 -0.050000
v -0.037225 0.282837 0.050000
v 0.450222 -0.034067 -0.050000
v -0.147888 0.268268 0.050000
v 0.464791 -0.144729 -0.050000
v 0.464791 -0.824520 -0.050000
v -0.464792 -0.144729 0.050000
v -0.450222 -0.034067 0.050000
v -0.407508 0.069054 0.050000
v -0.339560 0.157605 0.050000
v -0.251008 0.225553 0.050000
v -0.464792 -0.824520 0.050000
v -0.464792 -0.824520 -0.050000
v -0.251008 0.225553 -0.050000
v -0.339560 0.157605 -0.050000
v -0.407508 0.069054 -0.050000
v -0.450222 -0.034067 -0.050000
v -0.464792 -0.144729 -0.050000
v -0.147888 0.268268 -0.050000
v -0.037225 0.282837 -0.050000
v 0.407508 0.069054 -0.050000
v 0.339560 0.157605 -0.050000
v 0.251008 0.225553 -0.050000
v 0.147887 0.268268 -0.050000
vn 0.5326 0.5038 -0.6801
vn 0.6503 0.3318 -0.6834
vn 0.7193 0.0488 -0.6930
vn 0.3778 0.6287 -0.6797
vn 0.1986 0.7064 -0.6794
vn 0.0567 0.7187 -0.6930
vn -0.0465 0.7197 -0.6927
vn -0.7190 0.0486 -0.6933
vn 0.5467 -0.5657 -0.6174
vn -0.6481 -0.4001 -0.6481
vn -0.4001 -0.6481 0.6481
vn 0.5467 -0.5657 0.6174
vn -0.7198 0.0455 0.6927
vn 0.7185 0.0473 0.6939
vn -0.0478 0.7194 0.6929
vn 0.0376 0.7200 0.6930
vn 0.1812 0.7110 0.6794
vn 0.3556 0.6416 0.6797
vn 0.5038 0.5327 0.6801
vn 0.6143 0.3988 0.6809
vn 0.6784 0.2732 0.6820
vn -0.1970 0.7044 0.6819
vn -0.3759 0.6271 0.6823
vn -0.5304 0.5025 0.6828
vn -0.6502 0.3319 0.6834
vn -0.7241 0.1026 0.6820
vn 0.6784 0.2732 -0.6820
vn -0.1986 0.7064 -0.6794
vn -0.3715 0.6434 -0.6694
vn -0.6525 0.3326 -0.6809
vn -0.7646 0.2049 -0.6111
vn -0.5289 0.5289 -0.6637
usemtl (null)
s 1
f 30//1 29//2 13//3
f 31//4 30//1 13//3
f 32//5 31//4 13//3
f 9//6 32//5 13//3
f 28//7 9//6 13//3
f 26//8 28//7 13//3
f 26//8 13//3 14//9
f 21//10 26//8 14//9
f 20//11 1//12 15//13
f 15//13 1//12 2//14
f 15//13 2//14 10//15
f 10//15 2//14 4//16
f 4//16 2//14 5//17
f 5//17 2//14 6//18
f 6//18 2//14 7//19
f 7//19 2//14 8//20
f 8//20 2//14 3//21
f 10//15 12//22 15//13
f 15//13 12//22 19//23
f 15//13 19//23 18//24
f 18//24 17//25 15//13
f 15//13 17//25 16//26
f 3//21 11//27 29//2 8//20
f 1//12 14//9 13//3 2//14
f 12//22 27//28 22//29 19//23
f 20//11 21//10 14//9 1//12
f 6//18 31//4 32//5 5//17
f 17//25 24//30 25//31 16//26
f 2//14 13//3 11//27 3//21
f 10//15 28//7 27//28 12//22
f 8//20 29//2 30//1 7//19
f 19//23 22//29 23//32 18//24
f 5//17 32//5 9//6 4//16
f 16//26 25//31 26//8 15//13
f 4//16 9//6 28//7 10//15
f 7//19 30//1 31//4 6//18
f 18//24 23//32 24//30 17//25
f 15//13 26//8 21//10 20//11
f 26//8 25//31 24//30
f 23//32 26//8 24//30
f 26//8 23//32 22//29
f 26//8 22//29 27//28
f 28//7 26//8 27//28
f 29//2 11//27 13//3
